<svg id="visual" viewBox="0 0 900 600" width="900" height="600" xmlns="http://www.w3.org/2000/svg" xmlns:xlink="http://www.w3.org/1999/xlink" version="1.1">
<path d="M0 416L75 449L150 406L225 441L300 457L375 463L450 485L525 414L600 425L675 407L750 419L825 458L900 451L900 601L825 601L750 601L675 601L600 601L525 601L450 601L375 601L300 601L225 601L150 601L75 601L0 601Z" fill="#c3f0e9"></path>
<path d="M0 502L75 495L150 500L225 479L300 492L375 503L450 452L525 472L600 500L675 456L750 489L825 495L900 464L900 601L825 601L750 601L675 601L600 601L525 601L450 601L375 601L300 601L225 601L150 601L75 601L0 601Z" fill="#c0eef2"></path><path d="M0 501L75 517L150 530L225 476L300 486L375 533L450 527L525 495L600 509L675 508L750 474L825 501L900 518L900 601L825 601L750 601L675 601L600 601L525 601L450 601L375 601L300 601L225 601L150 601L75 601L0 601Z" fill="#c3eaf8"></path>
<path d="M0 520L75 554L150 552L225 527L300 540L375 551L450 525L525 533L600 554L675 521L750 529L825 530L900 541L900 601L825 601L750 601L675 601L600 601L525 601L450 601L375 601L300 601L225 601L150 601L75 601L0 601Z" fill="#cae6fa"></path><path d="M0 554L75 575L150 568L225 540L300 567L375 547L450 554L525 577L600 547L675 574L750 579L825 550L900 578L900 601L825 601L750 601L675 601L600 601L525 601L450 601L375 601L300 601L225 601L150 601L75 601L0 601Z" fill="#d4e1f9"></path></svg>